<svg xmlns="http://www.w3.org/2000/svg" viewBox="0 0 278 40">
  <g fill="#fff" fillRule="evenodd">
    <path d="M156.53 29.67h-1.84V18.98h-1.55v-1.6h1.55v-1.11c0-3.54.91-4.5 3.32-4.5.84 0 2.48.17 2.48.17l-.02 1.52s-1.38-.05-2.11-.05c-1.38 0-1.82.59-1.82 2.88v1.08h3.56v1.6h-3.56v10.7h-.01z" />
    <path
      fillRule="nonzero"
      d="M172.06 23.38c0 4.47-1.11 6.54-5.26 6.54-4.13 0-5.26-2.07-5.26-6.54 0-4.23 1.38-6.24 5.26-6.24 3.91-.01 5.26 2.01 5.26 6.24zm-1.89 0c0-3.42-.74-4.65-3.37-4.65-2.61 0-3.37 1.23-3.37 4.65 0 3.49.47 4.94 3.37 4.94 2.93 0 3.37-1.46 3.37-4.94z"
    />
    <path d="M175.07 17.38h1.82v1.67s2.14-1.47 4.5-1.94v1.87c-2.31.47-4.47 1.67-4.47 1.67v9.02h-1.84V17.38h-.01z" />
    <path
      fillRule="nonzero"
      d="M198.88 23.33c0 4.89-1.33 6.59-5.8 6.59-1.47 0-4.1-.27-4.1-.27V12.02h1.82v5.97s1.87-.86 3.61-.86c3.34 0 4.47 1.77 4.47 6.2zm-1.86 0c0-3.17-.64-4.55-2.8-4.55-1.7 0-3.42.71-3.42.71v8.65s1.6.12 2.26.12c3.37.01 3.96-1.49 3.96-4.93z"
    />
    <path d="M211.42 17.38v12.29h-1.84v-.86s-1.84 1.11-3.64 1.11c-3.44 0-4.15-1.6-4.15-6.12v-6.41h1.84v6.39c0 3.39.3 4.5 2.58 4.5 1.82 0 3.37-.91 3.37-.91v-9.98h1.84v-.01zM223.12 19.17s-2.73-.39-4.3-.39c-1.52 0-2.68.42-2.68 1.87 0 1.16.59 1.47 3.2 1.92 3.07.52 4.23 1.13 4.23 3.51 0 2.88-1.82 3.83-4.77 3.83-1.57 0-4.33-.47-4.33-.47l.1-1.6s2.8.42 4.05.42c2.02 0 3.1-.44 3.1-2.11 0-1.28-.64-1.6-3.32-2.02-2.78-.44-4.1-.96-4.1-3.42 0-2.7 2.19-3.59 4.42-3.59 1.84 0 4.45.47 4.45.47l-.05 1.58z" />
    <path fillRule="nonzero" d="M226.4 12.46h1.84v2.14h-1.84v-2.14zm0 4.92h1.84v12.29h-1.84V17.38z" />
    <path d="M231.78 29.67V17.38h1.82v.86s1.99-1.11 3.81-1.11c3.39 0 4.15 1.67 4.15 6.05v6.49h-1.82v-6.44c0-3.24-.37-4.45-2.65-4.45-1.77 0-3.47.91-3.47.91v9.98h-1.84z" />
    <path
      fillRule="nonzero"
      d="M254.05 28.07l.05 1.45s-2.8.39-4.79.39c-3.66 0-4.87-2.14-4.87-6.32 0-4.67 2.01-6.46 5.14-6.46 3.27 0 4.94 1.72 4.94 5.75l-.1 1.4h-8.11c0 2.63.81 4.01 3.22 4.01 1.84 0 4.52-.22 4.52-.22zm-1.38-5.26c0-3.05-.93-4.13-3.1-4.13-2.09 0-3.27 1.16-3.29 4.13h6.39z"
    />
    <path d="M265.56 19.17s-2.73-.39-4.3-.39c-1.52 0-2.68.42-2.68 1.87 0 1.16.59 1.47 3.2 1.92 3.07.52 4.23 1.13 4.23 3.51 0 2.88-1.82 3.83-4.77 3.83-1.57 0-4.33-.47-4.33-.47l.1-1.6s2.8.42 4.05.42c2.02 0 3.1-.44 3.1-2.11 0-1.28-.64-1.6-3.32-2.02-2.78-.44-4.11-.96-4.11-3.42 0-2.7 2.19-3.59 4.42-3.59 1.84 0 4.45.47 4.45.47l-.04 1.58zM276.99 19.17s-2.73-.39-4.3-.39c-1.52 0-2.68.42-2.68 1.87 0 1.16.59 1.47 3.2 1.92 3.07.52 4.23 1.13 4.23 3.51 0 2.88-1.82 3.83-4.77 3.83-1.57 0-4.33-.47-4.33-.47l.1-1.6s2.8.42 4.05.42c2.02 0 3.1-.44 3.1-2.11 0-1.28-.64-1.6-3.32-2.02-2.78-.44-4.11-.96-4.11-3.42 0-2.7 2.19-3.59 4.42-3.59 1.84 0 4.45.47 4.45.47l-.04 1.58z" />
    <g>
      <path d="M38.75 10.85h-3.07l-8.72 15.77-8.62-15.64-.06-.13h-3.04l10.15 18.27.04.1h3.02l.12-.02 9.99-18.01z" />
      <path
        fillRule="nonzero"
        d="M47.88 10.85h-3.21L34.19 28.88l-.18.34h2.97l.11-.04 2.27-3.9h13.97l2.28 3.84.07.1h2.88L47.95 10.96l-.07-.11zm4.1 12.07H40.71l5.59-9.6 5.68 9.6z"
      />
      <path d="M70.17 22.18h9.19v.68c0 1.49-.12 2.62-.71 3.25-.54.57-1.5.8-3.32.8h-8.47c-1 0-1.73-.08-2.3-.26-.6-.2-1.03-.5-1.35-.95-.26-.35-.42-.78-.51-1.38-.07-.54-.08-1.15-.08-1.95v-4.76c0-.8.01-1.41.08-1.94.1-.62.26-1.05.52-1.4.32-.46.76-.76 1.36-.95.56-.18 1.27-.26 2.3-.26h8.55c1.55 0 2.5.23 3.09.76.6.51.87 1.4.87 2.78v.5h2.5v-.22l.03-.51v-.46c0-2.16-.56-3.48-1.82-4.27-1.16-.72-2.87-1.01-5.9-1.01h-6.42c-1.25 0-2.56.03-3.66.23-1.09.19-1.9.53-2.55 1.08-.66.56-1.12 1.32-1.4 2.31-.26.91-.38 2.05-.38 3.51v4.88c0 1.34.13 2.41.38 3.26.28.92.74 1.64 1.4 2.21.66.56 1.51.93 2.6 1.12 1.1.19 2.4.22 3.64.22h6.4c1.57 0 2.83-.03 3.85-.19 1.14-.17 1.94-.49 2.54-1 .7-.6 1.13-1.33 1.33-2.32.18-.88.18-1.9.18-3.08v-3.13H70.17v2.45z" />
      <path
        fillRule="nonzero"
        d="M97.02 10.85h-3.21L83.35 28.87l-.23.35h3.11l2.28-3.94h13.97l2.28 3.84.07.1h2.89L97.09 10.95l-.07-.1zm4.11 12.07H89.87l5.58-9.6 5.68 9.6z"
      />
      <path d="M127.66 19.31c-.5-.3-1.16-.5-2.07-.62-.73-.09-1.6-.13-2.91-.13h-6.43c-1.63 0-2.87-.09-3.62-.5-.72-.38-1.03-1.07-1.03-2.3 0-1.15.28-1.81.94-2.2.65-.39 1.72-.55 3.56-.55h6.12c1.52 0 2.67.08 3.35.49.6.38.86 1.06.86 2.29v.5h2.6v-.74c0-.88-.1-1.6-.29-2.2-.21-.63-.54-1.13-1-1.53-.64-.53-1.5-.86-2.72-1.02-1.16-.16-2.57-.17-4.17-.17h-4.07c-3.01 0-4.81.31-6 1.04-1.32.78-1.94 2.12-1.94 4.19 0 1.95.5 3.23 1.59 4.04 1.06.77 2.64 1.12 5.13 1.12h7.56c1.3 0 2.3.08 2.9.49.56.37.82 1.06.82 2.23 0 1.43-.35 2.22-1.18 2.66-.9.48-2.43.58-4.46.58h-4.68c-1.99 0-3.16-.17-3.91-.56-.77-.41-1.12-1.09-1.12-2.21 0-.18.02-.41.04-.71.01-.1.01-.22.01-.34l.02-.25h-2.61l-.01.23V23.37l-.01.31c-.01.3-.03.57-.03.82 0 1.8.55 3.05 1.69 3.83 1.1.75 2.76 1.1 5.22 1.1h6.09c2.88 0 4.69-.36 5.85-1.17 1.22-.86 1.77-2.21 1.77-4.4 0-1.27-.1-2.1-.35-2.79-.35-.78-.81-1.34-1.51-1.76z" />
      <path
        fillRule="nonzero"
        d="M143.99 11.59c-.96-2.26-2.33-4.29-4.07-6.03-1.74-1.74-3.78-3.11-6.04-4.07C131.54.5 129.06 0 126.49 0H19c-2.56 0-5.05.5-7.39 1.49-2.26.96-4.3 2.32-6.04 4.07-1.75 1.74-3.12 3.77-4.08 6.03C.5 13.93 0 16.42 0 18.99v2.03c0 2.56.5 5.05 1.49 7.39.96 2.26 2.33 4.29 4.07 6.03 1.74 1.74 3.77 3.11 6.04 4.07C13.94 39.5 16.43 40 19 40h107.49c2.56 0 5.05-.5 7.39-1.49 2.26-.96 4.3-2.32 6.04-4.07 1.74-1.74 3.11-3.77 4.07-6.03.99-2.34 1.5-4.83 1.5-7.39v-2.03c0-2.57-.51-5.06-1.5-7.4zm-.93 9.42c0 4.42-1.72 8.58-4.85 11.71-3.13 3.13-7.29 4.85-11.72 4.85H19c-4.43 0-8.59-1.72-11.72-4.85-3.13-3.13-4.85-7.29-4.85-11.71v-2.03c0-4.43 1.72-8.58 4.85-11.71C10.41 4.15 14.57 2.42 19 2.42h107.49c4.43 0 8.59 1.72 11.72 4.85 3.13 3.13 4.85 7.29 4.85 11.71v2.03z"
      />
    </g>
  </g>
</svg>
