<svg id="Layer_1" xmlns="http://www.w3.org/2000/svg" viewBox="0 0 526 144.6"><style>.logo-vagas{fill-rule:evenodd;clip-rule:evenodd;fill:#fff}</style><path d="M451.9 141.6h-380C34.5 141.6 4 111 4 73.7 4 36.3 34.6 5.8 71.9 5.8h380c37.4 0 67.9 30.6 67.9 67.9 0 37.4-30.6 67.9-67.9 67.9z" fill="#00679f"></path><path class="logo-vagas" d="M102.7 105.1H92.3v-.2l-36-64.7-.2-.4h9.6l.1.1 31.7 57.5 31.8-57.5.1-.1h9.7l-.2.4-36 64.7v.2zM146.2 83.4L167.4 47 189 83.4h-42.8zm64.4 21.3l-37.7-64.8-.1-.1h-11l-.1.1-37.6 64.8-.2.4h9.8l.1-.1 8.2-14.1h51.2l8.4 14.1.1.1h9.1l-.2-.4zM241.7 97.9h30.6c6.5 0 10.3-.8 12.4-3.1 2.1-2.3 2.7-6.1 2.7-12.1v-3h-33.2v-7.8h41.7v10.8c0 4.2 0 7.9-.6 11-.7 3.2-2 5.8-4.6 8.1-2.2 1.9-5.1 2.9-8.9 3.5-3.7.6-8.3.7-13.8.7h-23c-5.1 0-9.4-.1-13-.8-3.7-.6-6.7-1.9-9.1-3.9-2.4-2-3.9-4.5-4.9-7.7-1-3.2-1.4-7-1.4-11.6V64.2c0-5 .4-9.2 1.4-12.5 1-3.4 2.5-6.1 4.9-8.1 2.3-2 5.3-3.1 8.9-3.8 3.6-.7 8-.8 13.1-.8h23.2c9.9 0 16.7.8 21 3.6 4.4 2.8 6.3 7.4 6.3 14.9v1.7c0 .6-.1 1.2-.1 1.8v.2h-7.9V60c0-5.1-1-8.5-3.4-10.5-2.3-2.1-6.1-2.9-11.5-2.9h-30.9c-3.5 0-6.2.2-8.5 1-2.2.7-3.9 1.8-5.2 3.7-1.1 1.5-1.6 3.3-2 5.3-.3 2-.3 4.4-.3 7.1v17.2c0 2.7 0 5 .3 7.1.3 2 .9 3.8 2 5.3 1.3 1.8 3 2.9 5.2 3.6 2.3.7 5.1 1 8.6 1M323.9 83.4L345.1 47l21.6 36.4h-42.8zm64.3 21.3l-37.7-64.8-.1-.1h-11l-.1.1-37.6 64.8-.2.4h9.8l.1-.1 8.2-14.1h51.2l8.4 14.1.1.1h9.1l-.2-.4zM394.3 84.5v-1h8.3v.3c0 .5 0 .9-.1 1.2-.1 1.1-.1 1.9-.1 2.6 0 4.3 1.4 6.9 4.3 8.5 3 1.6 7.7 2.1 14.4 2.1H438c7.8 0 13.1-.4 16.4-2.2 3.3-1.7 4.6-4.8 4.6-10.1 0-4.5-1-7.1-3.2-8.5-2.2-1.5-5.8-1.9-10.8-1.9h-27.3c-8.5 0-14.4-1.1-18.2-3.9-3.8-2.9-5.5-7.4-5.5-14.1 0-7.3 2.1-11.9 6.7-14.6 4.6-2.8 11.6-3.7 21.4-3.7h14.7c6 0 10.9.1 15 .6s7.2 1.6 9.6 3.6c1.6 1.4 2.7 3.1 3.4 5.3.7 2.1 1 4.7 1 7.8v2.1h-8.3v-1.3c0-4.6-1-7.2-3.4-8.8-2.5-1.5-6.4-1.9-12.4-1.9h-22.1c-6.3 0-10.5.5-13.2 2.1-2.6 1.6-3.7 4.2-3.7 8.4 0 4.7 1.2 7.3 4 8.8 2.8 1.5 7.2 1.9 13.4 1.9h23.2c4.1 0 7.6.1 10.5.5 3 .4 5.4 1 7.3 2.2 2.5 1.5 4.1 3.5 5 6.1.9 2.6 1.2 5.8 1.2 9.9 0 7.5-1.8 12.4-6.1 15.4s-11 4.1-20.8 4.1h-22c-8.5 0-14.6-1.2-18.5-3.9-4-2.7-5.8-7.1-5.8-13.4.1-1.3.2-2.7.2-4.2"></path><path d="M520.6 41.9c-3.5-8.2-8.4-15.5-14.7-21.8-6.3-6.3-13.7-11.3-21.8-14.7-8.5-3.6-17.5-5.4-26.7-5.4H68.7C59.4 0 50.4 1.8 42 5.4c-8.2 3.5-15.5 8.4-21.8 14.7-6.4 6.3-11.3 13.6-14.8 21.8C1.8 50.4 0 59.4 0 68.6V76c0 9.3 1.8 18.3 5.4 26.7 3.5 8.2 8.4 15.5 14.7 21.8 6.3 6.3 13.6 11.3 21.8 14.7 8.5 3.6 17.5 5.4 26.7 5.4h388.7c9.3 0 18.3-1.8 26.7-5.4 8.2-3.5 15.5-8.4 21.8-14.7 6.3-6.3 11.3-13.6 14.7-21.8 3.6-8.5 5.4-17.5 5.4-26.7v-7.3c.1-9.3-1.7-18.3-5.3-26.8zm-3.9 33.9c0 16-6.2 31-17.5 42.2-11.3 11.3-26.3 17.5-42.3 17.5H69.2c-16 0-31-6.2-42.3-17.5C15.6 106.8 9.4 91.8 9.4 75.8v-7.3c0-16 6.2-31 17.5-42.2C38.2 15 53.2 8.8 69.2 8.8h387.7c16 0 31 6.2 42.3 17.5 11.3 11.3 17.5 26.3 17.5 42.2v7.3z" fill="#fff"></path></svg>
